<?xml version="1.0" encoding="UTF-8" standalone="no"?>
<svg
   viewBox="0 0 256 256"
   version="1.1"
   id="svg4"
   width="256"
   height="256"
   xmlns="http://www.w3.org/2000/svg"
   xmlns:svg="http://www.w3.org/2000/svg">
  <defs
     id="defs8" />
  <path
     d="M 231.487,3.163 C 229.41,1.087 226.84,0 223.975,0 H 32.025 C 29.158,0 26.589,1.087 24.513,3.163 22.437,5.239 21.35,7.809 21.35,10.675 v 128 c 0,9.587 1.878,18.978 5.535,28.368 3.756,9.39 8.303,17.693 13.838,25.007 5.535,7.314 12.06,14.332 19.67,21.25 7.611,6.92 14.63,12.653 21.053,17.199 a 260.032,260.032 0 0 0 20.164,12.948 c 7.018,4.052 11.96,6.82 14.925,8.204 a 170.257,170.257 0 0 0 7.117,3.36 c 1.285,0.692 2.767,0.989 4.349,0.989 1.581,0 2.965,-0.297 4.349,-0.989 1.779,-0.79 4.151,-1.878 7.116,-3.36 2.966,-1.483 7.908,-4.152 14.925,-8.204 a 260.22,260.22 0 0 0 20.164,-12.948 c 6.425,-4.547 13.442,-10.28 21.053,-17.198 7.611,-6.919 14.134,-13.937 19.67,-21.251 5.534,-7.314 10.081,-15.617 13.837,-25.007 3.756,-9.39 5.535,-18.88 5.535,-28.368 v -128 c 0,-2.866 -1.087,-5.338 -3.162,-7.512 z m -24.71,136.7 c 0,46.357 -78.678,86.19 -78.678,86.19 V 27.383 h 78.678 z"
     style="fill:#175ddc"
     id="path2" />
</svg>
