<?xml version="1.0" encoding="UTF-8" standalone="no"?>
<svg
   viewBox="0 0 345.77191 345.7719"
   version="1.1"
   id="svg4"
   width="345.77191"
   height="345.77191"
   xmlns="http://www.w3.org/2000/svg"
   xmlns:svg="http://www.w3.org/2000/svg">
  <defs
     id="defs8" />
  <path
     fill="#10363d"
     d="m 112.21696,226.74383 c 0,-4.349 7.141,-7.112 13.02599,-5.037 l 36.293,13.335 c 2.84301,1.007 4.608,2.942 4.608,5.046 v 99.935 c 0,4.358 -7.09099,7.12 -12.96599,5.046 l -36.352,-13.344 c -2.843,-1.008 -4.608,-2.942 -4.608,-5.047 z M 44.885955,9.4998314 c 0,-4.348 7.151,-7.12 13.025,-5.046 l 36.345,13.3459996 c 2.842,1.057 4.618,2.942 4.618,5.046 V 336.28383 c 0,4.348 -7.151,7.11 -13.026,5.046 l -36.354,-13.355 c -2.843,-0.998 -4.608,-2.942 -4.608,-5.047 z M 179.53795,209.96683 c 0,-4.348 7.151,-7.12 13.026,-5.046 l 36.353,13.344 c 2.843,1.007 4.608,2.942 4.608,5.047 v 92.095 c 0,4.349 -7.151,7.111 -13.025,5.037 l -36.354,-13.344 v -0.02 c -2.832,-0.997 -4.608,-2.932 -4.608,-5.036 z m 67.361,-112.211999 c 0,-4.348 7.09201,-7.12 12.966,-5.046 l 36.35301,13.343999 h 0.05 c 2.843,1.008 4.618,2.942 4.618,5.047 v 151.258 c 0,4.348 -7.151,7.111 -13.025,5.037 l -36.355,-13.345 c -2.842,-0.997 -4.608,-2.932 -4.608,-5.037 z m -67.35999,-53.119 c 0,-4.298 7.15,-7.06 13.025,-4.986 l 36.353,13.344 c 2.843,0.997 4.608,2.882 4.608,4.987 v 92.094999 c 0,4.349 -7.151,7.121 -13.025,5.047 l -36.354,-13.345 c -2.832,-1.007 -4.608,-2.942 -4.608,-5.046 z m -67.323,-38.9449996 c 0,-4.299 7.141,-7.061 13.02599,-4.98700001 l 36.293,13.33499961 c 2.84301,1.007 4.608,2.942 4.608,5.046 V 119.27983 c 0,4.348 -7.09099,7.121 -12.96599,5.047 l -36.351,-13.347 c -2.843,-0.997 -4.608,-2.942 -4.608,-5.047 z"
     id="path2" />
</svg>
