<?xml version="1.0" encoding="UTF-8" standalone="no"?>
<!-- Created with Inkscape (http://www.inkscape.org/) -->

<svg
   width="31.565001"
   height="31.642002"
   viewBox="0 0 8.351573 8.3719463"
   version="1.1"
   id="svg882"
   xmlns="http://www.w3.org/2000/svg"
   xmlns:svg="http://www.w3.org/2000/svg">
  <defs
     id="defs879" />
  <g
     id="layer1"
     transform="translate(-33.298805,-55.393848)">
    <path
       fill="#ffc700"
       d="m 40.768257,60.671229 -1.319477,-1.091406 1.319477,-1.091406 0.410369,0.498739 -0.716492,0.592667 0.716492,0.592667 z m -0.50165,1.220523 -1.601787,-1.281377 h -1.331648 v 2.620433 h -0.645055 v -3.267074 h 2.202128 l 1.778529,1.422664 z m -0.950648,0.863071 -0.721254,-0.594783 v 0.905668 l -0.645054,0.1651 v -2.002102 l 0.527314,-0.0026 1.374246,1.132416 z m -3.257814,-0.542396 -0.645055,0.562504 v -6.33386 l 0.645055,0.562769 z m -1.263386,-0.7747 -0.645054,-0.550333 v -2.459038 l 0.645054,-0.593725 v 3.602832 z m 1.893623,-5.508625 h 0.645054 v 2.620169 h 1.331384 l 1.601787,-1.281377 0.402431,0.505354 -1.778529,1.422665 h -2.202127 v -3.267075 z m 1.261269,0.08784 0.645054,0.1651 v 0.905669 l 0.721254,-0.594784 0.535252,0.396346 -1.374246,1.132417 -0.527314,-0.0026 z m -0.475192,-0.623094 c -2.306108,0 -4.175654,1.874044 -4.175654,4.185709 0,2.312193 1.869546,4.186237 4.175654,4.186237 2.306373,0 4.175919,-1.874044 4.175919,-4.185973 0,-2.311929 -1.869546,-4.185973 -4.175919,-4.185973 z"
       id="path2"
       style="stroke-width:0.264583" />
  </g>
</svg>
