<?xml version="1.0" encoding="UTF-8" standalone="no"?>
<!-- Created with Inkscape (http://www.inkscape.org/) -->

<svg
   width="128"
   height="128"
   viewBox="0 0 33.866666 33.866668"
   version="1.1"
   id="svg5"
   xmlns="http://www.w3.org/2000/svg"
   xmlns:svg="http://www.w3.org/2000/svg">
  <defs
     id="defs2" />
  <rect
     style="fill:#000000;stroke:none;stroke-width:5.29166"
     id="rect850"
     width="33.866669"
     height="33.866669"
     x="0"
     y="-6.3570903e-15" />
  <g
     id="layer1">
    <g
       aria-label="$ pass"
       id="text3400"
       style="font-size:10.5833px;line-height:1.25;font-family:'Ac437 IBM VGA 8x16';-inkscape-font-specification:'Ac437 IBM VGA 8x16';letter-spacing:0px;word-spacing:0px;fill:#ffffff;stroke-width:0.264583">
      <path
         d="m 2.1166666,11.509352 v -1.322913 h 0.5490086 v 0.661456 h 0.5556233 v 0.661457 H 4.874939 V 8.8635267 H 2.6656752 V 8.2020705 H 2.1166666 V 6.2177018 H 2.6656752 V 5.5562456 H 3.7703071 V 4.2333331 H 4.874939 V 5.5562456 H 5.4239477 V 6.2177018 H 5.9729564 V 7.5406142 H 5.4239477 V 6.879158 H 4.874939 V 6.2177018 H 3.2212985 V 8.2020705 H 5.4239477 V 8.8635267 H 5.9729564 V 11.509352 H 5.4239477 v 0.661456 H 4.874939 V 13.49372 H 3.7703071 V 12.170808 H 2.6656752 v -0.661456 z"
         id="path5840" />
      <path
         d="m 10.927228,13.49372 h 0.549008 V 8.2020705 H 10.927228 V 7.5406142 h 1.104632 v 0.6614563 h 0.549008 V 11.509352 H 13.6855 V 8.2020705 H 12.580868 V 7.5406142 h 1.653641 v 0.6614563 h 0.549009 v 3.3072815 h -0.549009 v 0.661456 h -1.653641 v 1.322912 h 0.549009 v 0.661457 h -2.202649 z"
         id="path5842" />
      <path
         d="M 15.332508,11.509352 V 9.5249829 h 0.549009 V 8.8635267 h 1.65364 V 8.2020705 h -1.65364 V 7.5406142 h 2.209263 v 0.6614563 h 0.549009 v 3.3072815 h 0.549009 v 0.661456 H 18.09078 V 11.509352 H 17.535157 V 9.5249829 H 16.43714 v 1.9843691 h 1.098017 v 0.661456 h -1.65364 v -0.661456 z"
         id="path5844" />
      <path
         d="m 19.737789,11.509352 v -0.661457 h 1.104632 v 0.661457 h 1.65364 V 10.847895 H 21.940438 V 10.186439 H 20.842421 V 9.5249829 H 20.286798 V 8.8635267 H 19.737789 V 8.2020705 h 0.549009 V 7.5406142 h 2.758272 v 0.6614563 h 0.549009 V 8.8635267 H 22.496061 V 8.2020705 h -1.65364 v 0.6614562 h 0.549008 v 0.6614562 h 1.104632 v 0.6614561 h 0.549009 v 0.661456 h 0.549009 v 0.661457 H 23.04507 v 0.661456 h -2.758272 v -0.661456 z"
         id="path5846" />
      <path
         d="m 24.14307,11.509352 v -0.661457 h 1.104632 v 0.661457 h 1.65364 V 10.847895 H 26.345719 V 10.186439 H 25.247702 V 9.5249829 H 24.692079 V 8.8635267 H 24.14307 V 8.2020705 h 0.549009 V 7.5406142 h 2.758272 V 8.2020705 H 27.99936 V 8.8635267 H 26.901342 V 8.2020705 h -1.65364 v 0.6614562 h 0.549009 v 0.6614562 h 1.104631 v 0.6614561 h 0.549009 v 0.661456 h 0.549009 v 0.661457 h -0.549009 v 0.661456 h -2.758272 v -0.661456 z"
         id="path5848" />
    </g>
  </g>
</svg>
